<?xml version="1.0" encoding="UTF-8"?>
<svg width="60px" height="35px" viewBox="0 0 60 35" version="1.1" xmlns="http://www.w3.org/2000/svg" xmlns:xlink="http://www.w3.org/1999/xlink">
    <!-- Generator: Sketch 55.1 (78136) - https://sketchapp.com -->
    <title>qlouddop-w</title>
    <desc>Created with Sketch.</desc>
    <g id="qloud" stroke="none" stroke-width="1" fill="none" fill-rule="evenodd">
        <g id="logo" transform="translate(-227.000000, -90.000000)" fill="#FFFFFF">
            <g id="dop-w" transform="translate(225.500000, 88.000000)">
                <path d="M19.8710938,23.2691219 L25.7861328,23.2691219 C26.9521543,23.2691219 27.8940394,23.4273234 28.6118164,23.7437312 C29.3295934,24.0601391 29.9228492,24.5142361 30.3916016,25.1060359 C30.8603539,25.6978358 31.2001943,26.3863054 31.4111328,27.1714656 C31.6220714,27.9566258 31.7275391,28.7886487 31.7275391,29.6675594 C31.7275391,31.0445194 31.5708023,32.1123798 31.2573242,32.8711727 C30.9438461,33.6299655 30.5087918,34.2657013 29.9521484,34.7783992 C29.395505,35.2910971 28.7978548,35.6324023 28.1591797,35.802325 C27.2861284,36.0367012 26.4951207,36.1538875 25.7861328,36.1538875 L19.8710938,36.1538875 L19.8710938,23.2691219 Z M23.8525391,26.1870906 L23.8525391,33.2271297 L24.828125,33.2271297 C25.6601604,33.2271297 26.2519514,33.1348455 26.6035156,32.9502742 C26.9550799,32.765703 27.2304678,32.4434406 27.4296875,31.9834773 C27.6289072,31.5235141 27.7285156,30.7779161 27.7285156,29.7466609 C27.7285156,28.3814197 27.5058616,27.4468588 27.0605469,26.94295 C26.6152321,26.4390412 25.8769583,26.1870906 24.8457031,26.1870906 L23.8525391,26.1870906 Z M33.7647594,29.7202937 C33.7647594,27.6167676 34.350691,25.9790887 35.5225719,24.8072078 C36.6944527,23.635327 38.3262724,23.0493953 40.4180797,23.0493953 C42.5626217,23.0493953 44.2149489,23.6250731 45.3751109,24.7764461 C46.535273,25.927819 47.1153453,27.5405959 47.1153453,29.614825 C47.1153453,31.1206919 46.8619299,32.3555428 46.3550914,33.3194148 C45.8482529,34.2832869 45.1158384,35.0332794 44.1578258,35.5694148 C43.1998132,36.1055503 42.0059775,36.3736141 40.5762828,36.3736141 C39.1231505,36.3736141 37.9205259,36.1421711 36.9683727,35.6792781 C36.0162195,35.2163852 35.2442545,34.4839706 34.6524547,33.4820125 C34.0606549,32.4800544 33.7647594,31.2261607 33.7647594,29.7202937 Z M37.7462047,29.7378719 C37.7462047,31.0386596 37.9879015,31.9732206 38.4713023,32.5415828 C38.9547032,33.109945 39.6124115,33.3941219 40.4444469,33.3941219 C41.2999199,33.3941219 41.9620227,33.1158043 42.430775,32.5591609 C42.8995273,32.0025175 43.1339,31.0035041 43.1339,29.5620906 C43.1339,28.3491939 42.8892735,27.4629723 42.4000133,26.9033992 C41.910753,26.3438261 41.2471854,26.0640437 40.4092906,26.0640437 C39.6065522,26.0640437 38.9620274,26.3482206 38.4756969,26.9165828 C37.9893663,27.484945 37.7462047,28.4253653 37.7462047,29.7378719 Z M49.6886984,23.2691219 L56.3068625,23.2691219 C57.748276,23.2691219 58.827855,23.6118919 59.545632,24.2974422 C60.2634091,24.9829925 60.6222922,25.9585687 60.6222922,27.2242 C60.6222922,28.5249878 60.2311828,29.5415792 59.4489523,30.2740047 C58.6667219,31.0064302 57.4728862,31.3726375 55.8674094,31.3726375 L53.6877219,31.3726375 L53.6877219,36.1538875 L49.6886984,36.1538875 L49.6886984,23.2691219 Z M53.6877219,28.7622859 L54.6633078,28.7622859 C55.4308898,28.7622859 55.9699469,28.6289865 56.2804953,28.3623836 C56.5910437,28.0957807 56.7463156,27.7544755 56.7463156,27.3384578 C56.7463156,26.9341589 56.6115513,26.5913889 56.3420188,26.3101375 C56.0724862,26.0288861 55.5656553,25.8882625 54.8215109,25.8882625 L53.6877219,25.8882625 L53.6877219,28.7622859 Z" id="DOP" fill-rule="nonzero"></path>
                <path d="M15.5,32.5367 C8.292,30.3457 4.227,22.7257 6.418,15.5177 C8.61,8.3107 16.229,4.2447 23.437,6.4367 C29.736,8.3527 33.768,14.4947 33.02,21.0367 L36.92,21.0367 C36.92,20.5367 37.0000422,20.0367 37.0000422,19.5367 C37.021,9.8717 29.202,2.0197 19.537,1.99966172 C9.872,1.9797 2.021,9.7987 1.99996137,19.4637 C1.983,27.6007 7.578,34.6767 15.5,36.5367 L15.5,32.5367 Z" id="Fill"></path>
            </g>
        </g>
    </g>
</svg>